# xmcd
#
# Track frame offsets: 
#        150
#        19040
#        33102
#        49639
#        66495
#        81888
#        98172
#        114072
#        128472
#        142431
#
# Disc length: 2055 seconds
#
# Revision: 0
# Processed by: cddbd v1.5.2PL0 Copyright (c) Steve Scherf et al.
# Submitted via: ExactAudioCopy v1.3
#
DISCID=7d08050a
DTITLE=Jimmy Burns - The Chicago Sessions
DYEAR=2020
DGENRE=Blues
TTITLE0=Cold As Ice
TTITLE1=Killing Floor
TTITLE2=Back In The Day (Jimmy's Story, Pt. 1)
TTITLE3=Everyday I Have The Blues
TTITLE4=I Know You're Gone
TTITLE5=Stranded In Clarksdale
TTITLE6=Mean Old Frisco
TTITLE7=Waiting For The Bus (Jimmy's Story, Pt. 2)
TTITLE8=I'm Ready
TTITLE9=Chicago Avenue (Jimmy's Story, Pt. 3)
EXTD=
EXTT0=
EXTT1=
EXTT2=
EXTT3=
EXTT4=
EXTT5=
EXTT6=
EXTT7=
EXTT8=
EXTT9=
PLAYORDER=
